2Varta-Regular150.ufo
<glyph name="two" format="1">
  <advance width="797"/>
  <unicode hex="0032"/>
  <outline>
    <contour>
      <point x="249" y="1244"/>
      <point x="167" y="1233"/>
      <point x="57" y="1209" type="curve"/>
      <point x="76" y="1081" type="line"/>
      <point x="161" y="1100"/>
      <point x="248" y="1112"/>
      <point x="331" y="1112" type="curve" smooth="yes"/>
      <point x="513" y="1112"/>
      <point x="553" y="1052"/>
      <point x="553" y="953" type="curve" smooth="yes"/>
      <point x="553" y="824"/>
      <point x="523" y="764"/>
      <point x="447" y="650" type="curve" smooth="yes"/>
      <point x="350" y="505"/>
      <point x="173" y="285"/>
      <point x="14" y="113" type="curve"/>
      <point x="25" y="1" type="line"/>
      <point x="722" y="1" type="line"/>
      <point x="722" y="130" type="line"/>
      <point x="209" y="130" type="line"/>
      <point x="261" y="190" type="line" smooth="yes"/>
      <point x="358" y="302"/>
      <point x="471" y="441"/>
      <point x="545" y="545" type="curve" smooth="yes"/>
      <point x="640" y="679"/>
      <point x="704" y="773"/>
      <point x="704" y="964" type="curve" smooth="yes"/>
      <point x="704" y="1167"/>
      <point x="569" y="1244"/>
      <point x="353" y="1244" type="curve" smooth="yes"/>
    </contour>
  </outline>
</glyph>
<glyph name="six" format="1">
  <advance width="1020"/>
  <unicode hex="0036"/>
  <outline>
    <contour>
      <point x="203" y="1244"/>
      <point x="133" y="1088"/>
      <point x="130" y="770" type="curve" smooth="yes"/>
      <point x="130" y="351" type="line" smooth="yes"/>
      <point x="130" y="97"/>
      <point x="242" y="-16"/>
      <point x="536" y="-16" type="curve" smooth="yes"/>
      <point x="875" y="-16"/>
      <point x="912" y="189"/>
      <point x="912" y="359" type="curve" smooth="yes"/>
      <point x="912" y="434" type="line" smooth="yes"/>
      <point x="912" y="624"/>
      <point x="884" y="780"/>
      <point x="595" y="780" type="curve" smooth="yes"/>
      <point x="471" y="780"/>
      <point x="356" y="741"/>
      <point x="282" y="697" type="curve"/>
      <point x="280" y="767" type="line"/>
      <point x="280" y="1072"/>
      <point x="353" y="1117"/>
      <point x="525" y="1117" type="curve" smooth="yes"/>
      <point x="648" y="1117"/>
      <point x="756" y="1086"/>
      <point x="825" y="1057" type="curve"/>
      <point x="869" y="1191" type="line"/>
      <point x="822" y="1218"/>
      <point x="695" y="1244"/>
      <point x="562" y="1244" type="curve" smooth="yes"/>
    </contour>
    <contour>
      <point x="729" y="645"/>
      <point x="761" y="609"/>
      <point x="761" y="404" type="curve" smooth="yes"/>
      <point x="761" y="359" type="line" smooth="yes"/>
      <point x="761" y="186"/>
      <point x="727" y="116"/>
      <point x="550" y="116" type="curve" smooth="yes"/>
      <point x="506" y="116" type="line" smooth="yes"/>
      <point x="305" y="116"/>
      <point x="282" y="205"/>
      <point x="282" y="390" type="curve" smooth="yes"/>
      <point x="282" y="579" type="line"/>
      <point x="342" y="611"/>
      <point x="450" y="645"/>
      <point x="564" y="645" type="curve" smooth="yes"/>
      <point x="585" y="645" type="line" smooth="yes"/>
    </contour>
  </outline>
</glyph>
<glyph name="eight" format="1">
  <advance width="983"/>
  <unicode hex="0038"/>
  <outline>
    <contour>
      <point x="530" y="700" type="line"/>
      <point x="176" y="637"/>
      <point x="102" y="578"/>
      <point x="102" y="355" type="curve" smooth="yes"/>
      <point x="102" y="302" type="line" smooth="yes"/>
      <point x="102" y="36"/>
      <point x="263" y="-16"/>
      <point x="480" y="-16" type="curve" smooth="yes"/>
      <point x="701" y="-16"/>
      <point x="881" y="35"/>
      <point x="881" y="302" type="curve" smooth="yes"/>
      <point x="881" y="347" type="line" smooth="yes"/>
      <point x="881" y="567"/>
      <point x="821" y="629"/>
      <point x="533" y="700" type="curve"/>
    </contour>
    <contour>
      <point x="692" y="524"/>
      <point x="733" y="484"/>
      <point x="733" y="354" type="curve" smooth="yes"/>
      <point x="733" y="302" type="line" smooth="yes"/>
      <point x="733" y="147"/>
      <point x="649" y="116"/>
      <point x="518" y="116" type="curve" smooth="yes"/>
      <point x="465" y="116" type="line" smooth="yes"/>
      <point x="332" y="116"/>
      <point x="250" y="152"/>
      <point x="250" y="302" type="curve" smooth="yes"/>
      <point x="250" y="354" type="line" smooth="yes"/>
      <point x="250" y="486"/>
      <point x="290" y="528"/>
      <point x="490" y="591" type="curve"/>
    </contour>
    <contour>
      <point x="636" y="1117"/>
      <point x="719" y="1094"/>
      <point x="719" y="967" type="curve" smooth="yes"/>
      <point x="719" y="832"/>
      <point x="671" y="777"/>
      <point x="503" y="722" type="curve"/>
      <point x="275" y="800"/>
      <point x="259" y="817"/>
      <point x="259" y="951" type="curve" smooth="yes"/>
      <point x="259" y="1091"/>
      <point x="341" y="1117"/>
      <point x="493" y="1117" type="curve" smooth="yes"/>
    </contour>
    <contour>
      <point x="493" y="1244" type="line" smooth="yes"/>
      <point x="280" y="1244"/>
      <point x="118" y="1172"/>
      <point x="118" y="965" type="curve" smooth="yes"/>
      <point x="118" y="954" type="line" smooth="yes"/>
      <point x="118" y="748"/>
      <point x="190" y="674"/>
      <point x="434" y="624" type="curve"/>
      <point x="435" y="624" type="line"/>
      <point x="551" y="628" type="line"/>
      <point x="561" y="631"/>
      <point x="574" y="637"/>
      <point x="584" y="641" type="curve"/>
      <point x="791" y="712"/>
      <point x="860" y="789"/>
      <point x="860" y="954" type="curve" smooth="yes"/>
      <point x="860" y="967" type="line" smooth="yes"/>
      <point x="860" y="1175"/>
      <point x="740" y="1244"/>
      <point x="503" y="1244" type="curve" smooth="yes"/>
    </contour>
  </outline>
</glyph>
<glyph name="nine" format="1">
  <advance width="1021"/>
  <unicode hex="0039"/>
  <outline>
    <contour>
      <point x="147" y="1244"/>
      <point x="108" y="1039"/>
      <point x="108" y="870" type="curve" smooth="yes"/>
      <point x="108" y="795" type="line" smooth="yes"/>
      <point x="108" y="604"/>
      <point x="136" y="449"/>
      <point x="427" y="449" type="curve" smooth="yes"/>
      <point x="552" y="449"/>
      <point x="666" y="486"/>
      <point x="740" y="534" type="curve"/>
      <point x="740" y="461" type="line" smooth="yes"/>
      <point x="740" y="157"/>
      <point x="661" y="114"/>
      <point x="467" y="114" type="curve" smooth="yes"/>
      <point x="368" y="114"/>
      <point x="245" y="152"/>
      <point x="180" y="177" type="curve"/>
      <point x="136" y="47" type="line"/>
      <point x="184" y="23"/>
      <point x="325" y="-16"/>
      <point x="473" y="-16" type="curve" smooth="yes"/>
      <point x="817" y="-16"/>
      <point x="889" y="141"/>
      <point x="891" y="459" type="curve" smooth="yes"/>
      <point x="891" y="878" type="line" smooth="yes"/>
      <point x="891" y="1132"/>
      <point x="780" y="1244"/>
      <point x="484" y="1244" type="curve" smooth="yes"/>
    </contour>
    <contour>
      <point x="716" y="1113"/>
      <point x="740" y="1024"/>
      <point x="740" y="838" type="curve" smooth="yes"/>
      <point x="740" y="650" type="line"/>
      <point x="679" y="616"/>
      <point x="570" y="582"/>
      <point x="458" y="582" type="curve" smooth="yes"/>
      <point x="436" y="582" type="line" smooth="yes"/>
      <point x="292" y="582"/>
      <point x="261" y="619"/>
      <point x="261" y="822" type="curve" smooth="yes"/>
      <point x="261" y="870" type="line" smooth="yes"/>
      <point x="261" y="1042"/>
      <point x="295" y="1113"/>
      <point x="472" y="1113" type="curve" smooth="yes"/>
      <point x="515" y="1113" type="line" smooth="yes"/>
    </contour>
  </outline>
</glyph>
<glyph name="anusvara-deva" format="1">
  <advance width="540"/>
  <unicode hex="0902"/>
  <outline>
    <contour>
      <point x="202" y="1627"/>
      <point x="172" y="1599"/>
      <point x="172" y="1531" type="curve" smooth="yes"/>
      <point x="172" y="1464"/>
      <point x="202" y="1435"/>
      <point x="270" y="1435" type="curve" smooth="yes"/>
      <point x="338" y="1435"/>
      <point x="368" y="1464"/>
      <point x="368" y="1531" type="curve" smooth="yes"/>
      <point x="368" y="1599"/>
      <point x="338" y="1627"/>
      <point x="270" y="1627" type="curve" smooth="yes"/>
    </contour>
    <contour>
      <point x="271" y="1168" type="move" name="_top"/>
    </contour>
  </outline>
</glyph>
<glyph name="eShort-deva" format="1">
  <advance width="1034"/>
  <unicode hex="090E"/>
  <outline>
    <component base="e-deva"/>
    <component base="eShortMatra-deva" xOffset="546"/>
    <contour>
      <point x="251" y="584" type="move" name="top"/>
    </contour>
    <contour>
      <point x="251" y="14" type="move" name="bottom"/>
    </contour>
  </outline>
</glyph>
<glyph name="e-deva" format="1">
  <advance width="1034"/>
  <unicode hex="090F"/>
  <outline>
    <contour>
      <point x="140" y="1207" type="line"/>
      <point x="140" y="422" type="line" smooth="yes"/>
      <point x="140" y="142"/>
      <point x="295" y="-8"/>
      <point x="556" y="-8" type="curve" smooth="yes"/>
      <point x="688" y="-8"/>
      <point x="813" y="21"/>
      <point x="873" y="62" type="curve"/>
      <point x="824" y="185" type="line"/>
      <point x="786" y="165"/>
      <point x="682" y="128"/>
      <point x="564" y="128" type="curve" smooth="yes"/>
      <point x="373" y="128"/>
      <point x="296" y="236"/>
      <point x="296" y="405" type="curve" smooth="yes"/>
      <point x="296" y="1207" type="line"/>
    </contour>
    <contour>
      <point x="738" y="1191" type="line"/>
      <point x="738" y="754" type="line" smooth="yes"/>
      <point x="738" y="627"/>
      <point x="697" y="579"/>
      <point x="594" y="579" type="curve" smooth="yes"/>
      <point x="536" y="579"/>
      <point x="489" y="591"/>
      <point x="447" y="609" type="curve"/>
      <point x="420" y="480" type="line"/>
      <point x="472" y="456"/>
      <point x="530" y="443"/>
      <point x="600" y="443" type="curve" smooth="yes"/>
      <point x="791" y="443"/>
      <point x="894" y="547"/>
      <point x="894" y="748" type="curve" smooth="yes"/>
      <point x="894" y="1191" type="line"/>
    </contour>
    <contour>
      <point x="-15" y="1262" type="line"/>
      <point x="-15" y="1129" type="line"/>
      <point x="1049" y="1129" type="line"/>
      <point x="1049" y="1262" type="line"/>
    </contour>
    <contour>
      <point x="816" y="1168" type="move" name="top"/>
    </contour>
    <contour>
      <point x="541" y="43" type="move" name="bottom"/>
    </contour>
  </outline>
</glyph>
<glyph name="ai-deva" format="1">
  <advance width="1034"/>
  <unicode hex="0910"/>
  <outline>
    <component base="e-deva"/>
    <component base="eMatra-deva" xOffset="546"/>
    <contour>
      <point x="251" y="584" type="move" name="top"/>
    </contour>
    <contour>
      <point x="251" y="14" type="move" name="bottom"/>
    </contour>
  </outline>
</glyph>
<glyph name="jha-deva" format="1">
  <advance width="1512"/>
  <unicode hex="091D"/>
  <outline>
    <contour>
      <point x="1084" y="517"/>
      <point x="926" y="480"/>
      <point x="807" y="492" type="curve"/>
      <point x="861" y="377" type="line"/>
      <point x="967" y="362"/>
      <point x="1156" y="402"/>
      <point x="1220" y="462" type="curve"/>
      <point x="1200" y="606" type="line"/>
    </contour>
    <component base="i-deva"/>
    <component base="aaMatra-deva" xOffset="955"/>
    <contour>
      <point x="1234" y="1168" type="move" name="top"/>
    </contour>
    <contour>
      <point x="1234" y="28" type="move" name="bottom"/>
    </contour>
    <contour>
      <point x="858" y="1168" type="move" name="topcandrabindu"/>
    </contour>
  </outline>
</glyph>
<glyph name="llla-deva" format="1">
  <advance width="1493"/>
  <unicode hex="0934"/>
  <outline>
    <component base="lla-deva"/>
    <component base="nukta-deva" xOffset="452" yOffset="63"/>
    <contour>
      <point x="573" y="584" type="move" name="top"/>
    </contour>
    <contour>
      <point x="561" y="14" type="move" name="bottom"/>
    </contour>
  </outline>
</glyph>
<glyph name="ooeMatra-deva" format="1">
  <advance width="557"/>
  <unicode hex="093B"/>
  <outline>
    <contour>
      <point x="200" y="1106" type="line"/>
      <point x="355" y="1106" type="line"/>
      <point x="355" y="1487" type="line"/>
      <point x="200" y="1487" type="line"/>
    </contour>
    <component base="aaMatra-deva"/>
  </outline>
</glyph>
<glyph name="nukta-deva" format="1">
  <advance width="570"/>
  <unicode hex="093C"/>
  <outline>
    <contour>
      <point x="213" y="115"/>
      <point x="186" y="89"/>
      <point x="186" y="28" type="curve" smooth="yes"/>
      <point x="186" y="-33"/>
      <point x="213" y="-59"/>
      <point x="275" y="-59" type="curve" smooth="yes"/>
      <point x="336" y="-59"/>
      <point x="363" y="-33"/>
      <point x="363" y="28" type="curve" smooth="yes"/>
      <point x="363" y="89"/>
      <point x="336" y="115"/>
      <point x="275" y="115" type="curve" smooth="yes"/>
    </contour>
    <contour>
      <point x="275" y="28" type="move" name="_nukta"/>
    </contour>
  </outline>
</glyph>
<glyph name="rVocalicMatra-deva" format="1">
  <advance width="540"/>
  <unicode hex="0943"/>
  <outline>
    <contour>
      <point x="94" y="65"/>
      <point x="-23" y="-39"/>
      <point x="-23" y="-184" type="curve"/>
      <point x="-23" y="-331"/>
      <point x="107" y="-414"/>
      <point x="245" y="-414" type="curve" smooth="yes"/>
      <point x="354" y="-414"/>
      <point x="454" y="-373"/>
      <point x="529" y="-317" type="curve"/>
      <point x="473" y="-211" type="line"/>
      <point x="411" y="-253"/>
      <point x="331" y="-289"/>
      <point x="256" y="-290" type="curve" smooth="yes"/>
      <point x="173" y="-290"/>
      <point x="121" y="-250"/>
      <point x="121" y="-180" type="curve" smooth="yes"/>
      <point x="121" y="-96"/>
      <point x="183" y="-44"/>
      <point x="333" y="0" type="curve"/>
      <point x="279" y="106" type="line"/>
    </contour>
    <contour>
      <point x="135" y="14" type="move" name="_bottom"/>
    </contour>
  </outline>
</glyph>
<glyph name="rrVocalicMatra-deva" format="1">
  <advance width="560"/>
  <unicode hex="0944"/>
  <outline>
    <contour>
      <point x="323" y="74"/>
      <point x="301" y="75"/>
      <point x="288" y="75" type="curve" smooth="yes"/>
      <point x="139" y="75"/>
      <point x="-37" y="3"/>
      <point x="-37" y="-147" type="curve" smooth="yes"/>
      <point x="-37" y="-218"/>
      <point x="-19" y="-340"/>
      <point x="237" y="-373" type="curve"/>
      <point x="305" y="-312" type="line"/>
      <point x="156" y="-289"/>
      <point x="112" y="-231"/>
      <point x="112" y="-167" type="curve" smooth="yes"/>
      <point x="112" y="-87"/>
      <point x="197" y="-51"/>
      <point x="335" y="-49" type="curve"/>
      <point x="335" y="73" type="line"/>
    </contour>
    <contour>
      <point x="110" y="-294"/>
      <point x="36" y="-414"/>
      <point x="36" y="-519" type="curve" smooth="yes"/>
      <point x="36" y="-648"/>
      <point x="133" y="-745"/>
      <point x="291" y="-745" type="curve" smooth="yes"/>
      <point x="398" y="-745"/>
      <point x="502" y="-709"/>
      <point x="577" y="-653" type="curve"/>
      <point x="522" y="-546" type="line"/>
      <point x="458" y="-593"/>
      <point x="372" y="-623"/>
      <point x="299" y="-623" type="curve" smooth="yes"/>
      <point x="216" y="-623"/>
      <point x="179" y="-587"/>
      <point x="179" y="-521" type="curve" smooth="yes"/>
      <point x="179" y="-449"/>
      <point x="237" y="-407"/>
      <point x="389" y="-391" type="curve"/>
      <point x="374" y="-278" type="line"/>
    </contour>
    <contour>
      <point x="270" y="28" type="move" name="_bottom"/>
    </contour>
  </outline>
</glyph>
<glyph name="aiMatra-deva" format="1">
  <advance width="540"/>
  <unicode hex="0948"/>
  <outline>
    <contour>
      <point x="307" y="1222" type="line"/>
      <point x="204" y="1667"/>
      <point x="75" y="1780"/>
      <point x="-228" y="1780" type="curve" smooth="yes"/>
      <point x="-311" y="1780"/>
      <point x="-372" y="1769"/>
      <point x="-420" y="1760" type="curve"/>
      <point x="-394" y="1638" type="line"/>
      <point x="-344" y="1646"/>
      <point x="-275" y="1656"/>
      <point x="-215" y="1656" type="curve" smooth="yes"/>
      <point x="-28" y="1656"/>
      <point x="67" y="1637"/>
      <point x="202" y="1304" type="curve"/>
      <point x="231" y="1313" type="line"/>
      <point x="79" y="1484"/>
      <point x="20" y="1529"/>
      <point x="-143" y="1531" type="curve" smooth="yes"/>
      <point x="-221" y="1531"/>
      <point x="-293" y="1522"/>
      <point x="-361" y="1507" type="curve"/>
      <point x="-334" y="1395" type="line"/>
      <point x="-264" y="1407"/>
      <point x="-203" y="1415"/>
      <point x="-137" y="1415" type="curve" smooth="yes"/>
      <point x="37" y="1415"/>
      <point x="113" y="1342"/>
      <point x="226" y="1192" type="curve"/>
    </contour>
    <contour>
      <point x="244" y="1168" type="move" name="_top"/>
    </contour>
  </outline>
</glyph>
<glyph name="oMatra-deva" format="1">
  <advance width="557"/>
  <unicode hex="094B"/>
  <outline>
    <component base="aaMatra-deva"/>
    <component base="eMatra-deva" xOffset="9"/>
    <contour>
      <point x="384" y="1405" type="move" name="anusvara"/>
    </contour>
  </outline>
</glyph>
<glyph name="halant-deva" format="1">
  <advance width="540"/>
  <unicode hex="094D"/>
  <outline>
    <contour>
      <point x="36" y="-77"/>
      <point x="-7" y="-83"/>
      <point x="-67" y="-93" type="curve"/>
      <point x="-44" y="-235" type="line"/>
      <point x="18" y="-226"/>
      <point x="57" y="-223"/>
      <point x="111" y="-223" type="curve" smooth="yes"/>
      <point x="243" y="-223"/>
      <point x="318" y="-247"/>
      <point x="556" y="-476" type="curve"/>
      <point x="630" y="-404" type="line"/>
      <point x="374" y="-131"/>
      <point x="261" y="-77"/>
      <point x="95" y="-77" type="curve" smooth="yes"/>
    </contour>
    <contour>
      <point x="116" y="28" type="move" name="_bottom"/>
    </contour>
  </outline>
</glyph>
<glyph name="awMatra-deva" format="1">
  <advance width="557"/>
  <unicode hex="094F"/>
  <outline>
    <contour>
      <point x="-378" y="1799"/>
      <point x="-389" y="1768"/>
      <point x="-389" y="1739" type="curve" smooth="yes"/>
      <point x="-389" y="1664"/>
      <point x="-325" y="1596"/>
      <point x="-202" y="1574" type="curve" smooth="yes"/>
      <point x="47" y="1531" type="line" smooth="yes"/>
      <point x="197" y="1503"/>
      <point x="274" y="1469"/>
      <point x="274" y="1354" type="curve" smooth="yes"/>
      <point x="274" y="1323"/>
      <point x="271" y="1284"/>
      <point x="249" y="1229" type="curve"/>
      <point x="308" y="1195" type="line"/>
      <point x="360" y="1277"/>
      <point x="380" y="1348"/>
      <point x="380" y="1409" type="curve" smooth="yes"/>
      <point x="380" y="1544"/>
      <point x="281" y="1615"/>
      <point x="101" y="1646" type="curve" smooth="yes"/>
      <point x="-103" y="1680" type="line" smooth="yes"/>
      <point x="-247" y="1706"/>
      <point x="-284" y="1735"/>
      <point x="-287" y="1785" type="curve" smooth="yes"/>
      <point x="-288" y="1794"/>
      <point x="-287" y="1803"/>
      <point x="-286" y="1813" type="curve"/>
      <point x="-354" y="1827" type="line"/>
    </contour>
    <contour>
      <point x="-519" y="1647"/>
      <point x="-527" y="1612"/>
      <point x="-527" y="1579" type="curve" smooth="yes"/>
      <point x="-527" y="1478"/>
      <point x="-453" y="1387"/>
      <point x="-286" y="1366" type="curve" smooth="yes"/>
      <point x="19" y="1328" type="line" smooth="yes"/>
      <point x="170" y="1307"/>
      <point x="204" y="1286"/>
      <point x="204" y="1194" type="curve" smooth="yes"/>
      <point x="204" y="1172"/>
      <point x="202" y="1146"/>
      <point x="200" y="1115" type="curve"/>
      <point x="256" y="1098" type="line"/>
      <point x="270" y="1146"/>
      <point x="280" y="1193"/>
      <point x="280" y="1233" type="curve" smooth="yes"/>
      <point x="280" y="1367"/>
      <point x="210" y="1416"/>
      <point x="21" y="1445" type="curve" smooth="yes"/>
      <point x="-242" y="1485" type="line" smooth="yes"/>
      <point x="-392" y="1508"/>
      <point x="-427" y="1563"/>
      <point x="-428" y="1631" type="curve" smooth="yes"/>
      <point x="-429" y="1642"/>
      <point x="-428" y="1654"/>
      <point x="-426" y="1666" type="curve"/>
      <point x="-503" y="1680" type="line"/>
    </contour>
    <component base="aaMatra-deva"/>
  </outline>
</glyph>
<glyph name="uueMatra-deva" format="1">
  <advance width="540"/>
  <unicode hex="0957"/>
  <outline>
    <contour>
      <point x="-48" y="1" type="line"/>
      <point x="0" y="-106"/>
      <point x="107" y="-209"/>
      <point x="278" y="-209" type="curve" smooth="yes"/>
      <point x="426" y="-209"/>
      <point x="534" y="-133"/>
      <point x="600" y="6" type="curve"/>
      <point x="503" y="63" type="line"/>
      <point x="461" y="-4"/>
      <point x="391" y="-73"/>
      <point x="270" y="-73" type="curve" smooth="yes"/>
      <point x="145" y="-73"/>
      <point x="79" y="-14"/>
      <point x="35" y="60" type="curve"/>
    </contour>
    <contour>
      <point x="-39" y="-283" type="line"/>
      <point x="9" y="-389"/>
      <point x="116" y="-493"/>
      <point x="287" y="-493" type="curve" smooth="yes"/>
      <point x="435" y="-493"/>
      <point x="543" y="-416"/>
      <point x="609" y="-278" type="curve"/>
      <point x="512" y="-221" type="line"/>
      <point x="470" y="-288"/>
      <point x="400" y="-356"/>
      <point x="279" y="-356" type="curve" smooth="yes"/>
      <point x="154" y="-356"/>
      <point x="88" y="-297"/>
      <point x="44" y="-224" type="curve"/>
    </contour>
  </outline>
</glyph>
<glyph name="khha-deva" format="1">
  <advance width="1601"/>
  <unicode hex="0959"/>
  <outline>
    <component base="kha-deva"/>
    <component base="nukta-deva" xOffset="-116" yOffset="30"/>
    <contour>
      <point x="651" y="584" type="move" name="top"/>
    </contour>
    <contour>
      <point x="652" y="14" type="move" name="bottom"/>
    </contour>
    <contour>
      <point x="428" y="584" type="move" name="topcandrabindu"/>
    </contour>
  </outline>
</glyph>
<glyph name="dddha-deva" format="1">
  <advance width="1011"/>
  <unicode hex="095C"/>
  <outline>
    <component base="dda-deva"/>
    <component base="nukta-deva" xOffset="247" yOffset="-213"/>
    <contour>
      <point x="360" y="584" type="move" name="top"/>
    </contour>
    <contour>
      <point x="305" y="-24" type="move" name="bottom"/>
    </contour>
    <contour>
      <point x="254" y="584" type="move" name="topcandrabindu"/>
    </contour>
  </outline>
</glyph>
<glyph name="rha-deva" format="1">
  <advance width="1074"/>
  <unicode hex="095D"/>
  <outline>
    <component base="ddha-deva"/>
    <component base="nukta-deva" xOffset="-204" yOffset="30"/>
    <contour>
      <point x="396" y="584" type="move" name="top"/>
    </contour>
    <contour>
      <point x="342" y="14" type="move" name="bottom"/>
    </contour>
    <contour>
      <point x="265" y="584" type="move" name="topcandrabindu"/>
    </contour>
  </outline>
</glyph>
<glyph name="six-deva" format="1">
  <advance width="917"/>
  <unicode hex="096C"/>
  <outline>
    <contour>
      <point x="286" y="803"/>
      <point x="100" y="695"/>
      <point x="100" y="454" type="curve" smooth="yes"/>
      <point x="100" y="245"/>
      <point x="233" y="119"/>
      <point x="473" y="117" type="curve" smooth="yes"/>
      <point x="661" y="116"/>
      <point x="879" y="204"/>
      <point x="876" y="337" type="curve" smooth="yes"/>
      <point x="874" y="424"/>
      <point x="775" y="481"/>
      <point x="705" y="506" type="curve"/>
      <point x="590" y="440" type="line"/>
      <point x="718" y="242" type="line"/>
      <point x="743" y="332" type="line"/>
      <point x="680" y="293"/>
      <point x="607" y="252"/>
      <point x="483" y="252" type="curve" smooth="yes"/>
      <point x="327" y="252"/>
      <point x="259" y="325"/>
      <point x="259" y="452" type="curve" smooth="yes"/>
      <point x="259" y="587"/>
      <point x="346" y="662"/>
      <point x="528" y="662" type="curve" smooth="yes"/>
      <point x="562" y="662"/>
      <point x="591" y="660"/>
      <point x="624" y="657" type="curve"/>
      <point x="627" y="789" type="line"/>
      <point x="595" y="794"/>
      <point x="551" y="799"/>
      <point x="507" y="799" type="curve" smooth="yes"/>
    </contour>
    <contour>
      <point x="704" y="260" type="line"/>
      <point x="938" y="-65" type="line"/>
      <point x="1058" y="42" type="line"/>
      <point x="777" y="318" type="line"/>
    </contour>
    <contour>
      <point x="264" y="1282"/>
      <point x="116" y="1181"/>
      <point x="116" y="1006" type="curve" smooth="yes"/>
      <point x="116" y="885"/>
      <point x="196" y="777"/>
      <point x="392" y="708" type="curve"/>
      <point x="482" y="766" type="line"/>
      <point x="470" y="770" type="line"/>
      <point x="359" y="818"/>
      <point x="281" y="892"/>
      <point x="281" y="977" type="curve" smooth="yes"/>
      <point x="281" y="1078"/>
      <point x="343" y="1141"/>
      <point x="484" y="1141" type="curve" smooth="yes"/>
      <point x="545" y="1141"/>
      <point x="643" y="1132"/>
      <point x="713" y="1105" type="curve"/>
      <point x="745" y="1240" type="line"/>
      <point x="661" y="1271"/>
      <point x="556" y="1282"/>
      <point x="484" y="1282" type="curve" smooth="yes"/>
    </contour>
  </outline>
</glyph>
<glyph name="aw-deva" format="1">
  <advance width="1957"/>
  <unicode hex="0975"/>
  <outline>
    <contour>
      <point x="974" y="1724"/>
      <point x="969" y="1684"/>
      <point x="969" y="1659" type="curve" smooth="yes"/>
      <point x="969" y="1572"/>
      <point x="1028" y="1501"/>
      <point x="1202" y="1474" type="curve" smooth="yes"/>
      <point x="1435" y="1437" type="line" smooth="yes"/>
      <point x="1564" y="1417"/>
      <point x="1666" y="1403"/>
      <point x="1666" y="1275" type="curve" smooth="yes"/>
      <point x="1666" y="1241"/>
      <point x="1657" y="1212"/>
      <point x="1639" y="1168" type="curve"/>
      <point x="1704" y="1134" type="line"/>
      <point x="1750" y="1208"/>
      <point x="1768" y="1272"/>
      <point x="1768" y="1333" type="curve" smooth="yes"/>
      <point x="1768" y="1479"/>
      <point x="1677" y="1528"/>
      <point x="1490" y="1555" type="curve" smooth="yes"/>
      <point x="1254" y="1590" type="line" smooth="yes"/>
      <point x="1105" y="1612"/>
      <point x="1068" y="1656"/>
      <point x="1068" y="1711" type="curve" smooth="yes"/>
      <point x="1068" y="1723"/>
      <point x="1070" y="1736"/>
      <point x="1073" y="1749" type="curve"/>
      <point x="991" y="1764" type="line"/>
    </contour>
    <contour>
      <point x="942" y="1710"/>
      <point x="935" y="1679"/>
      <point x="935" y="1649" type="curve" smooth="yes"/>
      <point x="935" y="1546"/>
      <point x="1011" y="1469"/>
      <point x="1179" y="1439" type="curve" smooth="yes"/>
      <point x="1442" y="1394" type="line" smooth="yes"/>
      <point x="1598" y="1366"/>
      <point x="1633" y="1336"/>
      <point x="1633" y="1265" type="curve" smooth="yes"/>
      <point x="1633" y="1243"/>
      <point x="1631" y="1217"/>
      <point x="1628" y="1186" type="curve"/>
      <point x="1687" y="1169" type="line"/>
      <point x="1701" y="1217"/>
      <point x="1711" y="1264"/>
      <point x="1711" y="1304" type="curve" smooth="yes"/>
      <point x="1711" y="1417"/>
      <point x="1645" y="1485"/>
      <point x="1453" y="1518" type="curve" smooth="yes"/>
      <point x="1223" y="1556" type="line" smooth="yes"/>
      <point x="1069" y="1584"/>
      <point x="1032" y="1628"/>
      <point x="1031" y="1682" type="curve" smooth="yes"/>
      <point x="1031" y="1699"/>
      <point x="1033" y="1713"/>
      <point x="1036" y="1730" type="curve"/>
      <point x="955" y="1743" type="line"/>
    </contour>
    <component base="aa-deva"/>
  </outline>
</glyph>
<glyph name="rightFacingSvasti" format="1">
  <advance width="1622"/>
  <unicode hex="0FD5"/>
  <outline>
    <contour>
      <point x="733" y="1215" type="line"/>
      <point x="733" y="1" type="line"/>
      <point x="889" y="1" type="line"/>
      <point x="889" y="1215" type="line"/>
    </contour>
    <contour>
      <point x="183" y="133" type="line"/>
      <point x="183" y="1" type="line"/>
      <point x="889" y="1" type="line"/>
      <point x="889" y="133" type="line"/>
    </contour>
    <contour>
      <point x="183" y="1262" type="line"/>
      <point x="183" y="592" type="line"/>
      <point x="339" y="592" type="line"/>
      <point x="339" y="1262" type="line"/>
    </contour>
    <contour>
      <point x="183" y="708" type="line"/>
      <point x="183" y="576" type="line"/>
      <point x="1439" y="576" type="line"/>
      <point x="1439" y="708" type="line"/>
    </contour>
    <contour>
      <point x="1283" y="708" type="line"/>
      <point x="1283" y="1" type="line"/>
      <point x="1439" y="1" type="line"/>
      <point x="1439" y="708" type="line"/>
    </contour>
    <contour>
      <point x="733" y="1262" type="line"/>
      <point x="733" y="1129" type="line"/>
      <point x="1439" y="1129" type="line"/>
      <point x="1439" y="1262" type="line"/>
    </contour>
  </outline>
</glyph>
<glyph name="aiMatra_anusvara-deva" format="1">
  <advance width="831"/>
  <outline>
    <component base="anusvara-deva" xOffset="585" yOffset="-14"/>
    <component base="aiMatra-deva" xOffset="473"/>
    <contour>
      <point x="737" y="1168" type="move" name="_top"/>
    </contour>
  </outline>
</glyph>
<glyph name="anusvara-deva.001" format="1">
  <advance width="540"/>
  <outline>
    <contour>
      <point x="331" y="1546"/>
      <point x="304" y="1520"/>
      <point x="304" y="1459" type="curve" smooth="yes"/>
      <point x="304" y="1398"/>
      <point x="331" y="1372"/>
      <point x="393" y="1372" type="curve" smooth="yes"/>
      <point x="454" y="1372"/>
      <point x="481" y="1398"/>
      <point x="481" y="1459" type="curve" smooth="yes"/>
      <point x="481" y="1520"/>
      <point x="454" y="1546"/>
      <point x="393" y="1546" type="curve" smooth="yes"/>
    </contour>
    <contour>
      <point x="260" y="1168" type="move" name="_top"/>
    </contour>
  </outline>
</glyph>
<glyph name="anusvara_eMatra-deva" format="1">
  <advance width="540"/>
  <outline>
    <contour>
      <point x="295" y="1654"/>
      <point x="268" y="1628"/>
      <point x="268" y="1566" type="curve" smooth="yes"/>
      <point x="268" y="1506"/>
      <point x="295" y="1480"/>
      <point x="357" y="1480" type="curve" smooth="yes"/>
      <point x="418" y="1480"/>
      <point x="445" y="1506"/>
      <point x="445" y="1566" type="curve" smooth="yes"/>
      <point x="445" y="1628"/>
      <point x="418" y="1654"/>
      <point x="357" y="1654" type="curve" smooth="yes"/>
    </contour>
  </outline>
</glyph>
<glyph name="d-deva" format="1">
  <advance width="1028"/>
  <outline>
    <component base="da-deva"/>
    <component base="halant-deva" xOffset="450" yOffset="33"/>
    <contour>
      <point x="256" y="584" type="move" name="top"/>
    </contour>
    <contour>
      <point x="256" y="14" type="move" name="bottom"/>
    </contour>
  </outline>
</glyph>
<glyph name="d_dh_r_ya-deva" format="1">
  <advance width="2351"/>
  <outline>
    <contour>
      <point x="883" y="1163" type="line"/>
      <point x="883" y="856" type="line"/>
      <point x="971" y="880" type="line"/>
      <point x="903" y="897"/>
      <point x="842" y="904"/>
      <point x="790" y="904" type="curve" smooth="yes"/>
      <point x="447" y="904"/>
      <point x="320" y="748"/>
      <point x="320" y="505" type="curve" smooth="yes"/>
      <point x="320" y="256"/>
      <point x="475" y="83"/>
      <point x="784" y="83" type="curve" smooth="yes"/>
      <point x="896" y="83"/>
      <point x="987" y="106"/>
      <point x="1066" y="159" type="curve" smooth="yes"/>
      <point x="1129" y="201"/>
      <point x="1162" y="268"/>
      <point x="1162" y="324" type="curve" smooth="yes"/>
      <point x="1162" y="411"/>
      <point x="1081" y="480"/>
      <point x="973" y="511" type="curve"/>
      <point x="882" y="435" type="line"/>
      <point x="981" y="236" type="line"/>
      <point x="1033" y="297" type="line"/>
      <point x="937" y="236"/>
      <point x="868" y="216"/>
      <point x="773" y="216" type="curve" smooth="yes"/>
      <point x="595" y="216"/>
      <point x="483" y="286"/>
      <point x="483" y="489" type="curve" smooth="yes"/>
      <point x="483" y="697"/>
      <point x="589" y="764"/>
      <point x="816" y="764" type="curve" smooth="yes"/>
      <point x="920" y="764"/>
      <point x="1001" y="765"/>
      <point x="1040" y="765" type="curve"/>
      <point x="1040" y="1163" type="line"/>
    </contour>
    <contour>
      <point x="178" y="465"/>
      <point x="40" y="346"/>
      <point x="39" y="193" type="curve" smooth="yes"/>
      <point x="37" y="49"/>
      <point x="129" y="-42"/>
      <point x="286" y="-64" type="curve" smooth="yes"/>
      <point x="330" y="-71"/>
      <point x="380" y="-71"/>
      <point x="435" y="-66" type="curve"/>
      <point x="481" y="26" type="line"/>
      <point x="415" y="27"/>
      <point x="354" y="33"/>
      <point x="308" y="47" type="curve" smooth="yes"/>
      <point x="229" y="70"/>
      <point x="186" y="116"/>
      <point x="185" y="180" type="curve" smooth="yes"/>
      <point x="184" y="270"/>
      <point x="252" y="335"/>
      <point x="374" y="374" type="curve"/>
      <point x="345" y="497" type="line"/>
    </contour>
    <contour>
      <point x="965" y="-44"/>
      <point x="859" y="-260"/>
      <point x="659" y="-260" type="curve" smooth="yes"/>
      <point x="578" y="-260"/>
      <point x="516" y="-211"/>
      <point x="516" y="-129" type="curve" smooth="yes"/>
      <point x="516" y="-8"/>
      <point x="633" y="55"/>
      <point x="714" y="102" type="curve"/>
      <point x="663" y="202" type="line"/>
      <point x="580" y="159"/>
      <point x="367" y="70"/>
      <point x="367" y="-127" type="curve" smooth="yes"/>
      <point x="367" y="-290"/>
      <point x="493" y="-390"/>
      <point x="666" y="-390" type="curve" smooth="yes"/>
      <point x="1000" y="-390"/>
      <point x="1099" y="-38"/>
      <point x="1090" y="207" type="curve"/>
      <point x="991" y="255" type="line"/>
    </contour>
    <contour>
      <point x="862" y="-444" type="line"/>
      <point x="945" y="-548" type="line"/>
      <point x="1342" y="-233" type="line"/>
      <point x="1274" y="-145" type="line"/>
    </contour>
    <contour>
      <point x="1011" y="214" type="line"/>
      <point x="1336" y="-362" type="line"/>
      <point x="1450" y="-287" type="line"/>
      <point x="1095" y="256" type="line"/>
    </contour>
    <contour>
      <point x="978" y="896" type="line"/>
      <point x="962" y="765" type="line"/>
      <point x="1390" y="765" type="line" smooth="yes"/>
      <point x="1473" y="765"/>
      <point x="1515" y="742"/>
      <point x="1515" y="697" type="curve" smooth="yes"/>
      <point x="1515" y="635"/>
      <point x="1442" y="575"/>
      <point x="1255" y="526" type="curve"/>
      <point x="1311" y="253"/>
      <point x="1467" y="105"/>
      <point x="1698" y="105" type="curve" smooth="yes"/>
      <point x="1825" y="105"/>
      <point x="1931" y="152"/>
      <point x="2018" y="242" type="curve"/>
      <point x="2025" y="437" type="line"/>
      <point x="1942" y="300"/>
      <point x="1802" y="248"/>
      <point x="1687" y="248" type="curve" smooth="yes"/>
      <point x="1548" y="248"/>
      <point x="1441" y="326"/>
      <point x="1405" y="486" type="curve"/>
      <point x="1385" y="427" type="line"/>
      <point x="1487" y="455"/>
      <point x="1660" y="524"/>
      <point x="1660" y="704" type="curve" smooth="yes"/>
      <point x="1660" y="844"/>
      <point x="1556" y="897"/>
      <point x="1368" y="897" type="curve" smooth="yes"/>
    </contour>
    <contour>
      <point x="-15" y="1262" type="line"/>
      <point x="-15" y="1129" type="line"/>
      <point x="2366" y="1129" type="line"/>
      <point x="2366" y="1262" type="line"/>
    </contour>
    <contour>
      <point x="1994" y="1156" type="line"/>
      <point x="1994" y="0" type="line"/>
      <point x="2150" y="0" type="line"/>
      <point x="2150" y="1156" type="line"/>
    </contour>
    <contour>
      <point x="2073" y="1168" type="move" name="top"/>
    </contour>
    <contour>
      <point x="2073" y="28" type="move" name="bottom"/>
    </contour>
  </outline>
</glyph>
<glyph name="dd_ya-deva" format="1">
  <advance width="2210"/>
  <outline>
    <contour>
      <point x="1043" y="940"/>
      <point x="853" y="674"/>
      <point x="801" y="457" type="curve"/>
      <point x="900" y="354" type="line"/>
      <point x="925" y="527"/>
      <point x="1083" y="813"/>
      <point x="1262" y="813" type="curve" smooth="yes"/>
      <point x="1338" y="813"/>
      <point x="1374" y="787"/>
      <point x="1374" y="739" type="curve" smooth="yes"/>
      <point x="1374" y="677"/>
      <point x="1300" y="618"/>
      <point x="1113" y="568" type="curve"/>
      <point x="1169" y="296"/>
      <point x="1326" y="148"/>
      <point x="1556" y="148" type="curve" smooth="yes"/>
      <point x="1685" y="148"/>
      <point x="1789" y="194"/>
      <point x="1876" y="285" type="curve"/>
      <point x="1883" y="480" type="line"/>
      <point x="1801" y="343"/>
      <point x="1660" y="290"/>
      <point x="1545" y="290" type="curve" smooth="yes"/>
      <point x="1406" y="290"/>
      <point x="1300" y="369"/>
      <point x="1263" y="529" type="curve"/>
      <point x="1244" y="470" type="line"/>
      <point x="1338" y="499"/>
      <point x="1518" y="571"/>
      <point x="1518" y="750" type="curve" smooth="yes"/>
      <point x="1518" y="888"/>
      <point x="1413" y="940"/>
      <point x="1286" y="940" type="curve" smooth="yes"/>
    </contour>
    <contour>
      <point x="1853" y="1156" type="line"/>
      <point x="1853" y="0" type="line"/>
      <point x="2009" y="0" type="line"/>
      <point x="2009" y="1156" type="line"/>
    </contour>
    <contour>
      <point x="971" y="1262" type="line"/>
      <point x="971" y="1129" type="line"/>
      <point x="2224" y="1129" type="line"/>
      <point x="2224" y="1262" type="line"/>
    </contour>
    <component base="dda-deva" xOffset="8"/>
    <contour>
      <point x="1932" y="1168" type="move" name="top"/>
    </contour>
    <contour>
      <point x="1932" y="28" type="move" name="bottom"/>
    </contour>
    <contour>
      <point x="1333" y="1168" type="move" name="topcandrabindu"/>
    </contour>
  </outline>
</glyph>
<glyph name="ddh-deva" format="1">
  <advance width="1074"/>
  <outline>
    <component base="ddha-deva"/>
    <component base="halant-deva" xOffset="456" yOffset="47"/>
    <contour>
      <point x="266" y="584" type="move" name="top"/>
    </contour>
    <contour>
      <point x="266" y="14" type="move" name="bottom"/>
    </contour>
  </outline>
</glyph>
<glyph name="ddh_ddha-deva" format="1">
  <advance width="1114"/>
  <outline>
    <contour>
      <point x="698" y="1206" type="line"/>
      <point x="698" y="928" type="line"/>
      <point x="767" y="962" type="line"/>
      <point x="701" y="979"/>
      <point x="617" y="987"/>
      <point x="555" y="986" type="curve" smooth="yes"/>
      <point x="311" y="983"/>
      <point x="138" y="870"/>
      <point x="138" y="579" type="curve" smooth="yes"/>
      <point x="138" y="298"/>
      <point x="325" y="168"/>
      <point x="598" y="166" type="curve" smooth="yes"/>
      <point x="796" y="166"/>
      <point x="1022" y="239"/>
      <point x="1022" y="459" type="curve" smooth="yes"/>
      <point x="1022" y="601"/>
      <point x="921" y="673"/>
      <point x="782" y="673" type="curve" smooth="yes"/>
      <point x="621" y="673"/>
      <point x="557" y="577"/>
      <point x="557" y="486" type="curve" smooth="yes"/>
      <point x="557" y="390"/>
      <point x="607" y="325"/>
      <point x="690" y="263" type="curve"/>
      <point x="794" y="288" type="line"/>
      <point x="714" y="349"/>
      <point x="688" y="407"/>
      <point x="688" y="463" type="curve" smooth="yes"/>
      <point x="688" y="517"/>
      <point x="720" y="559"/>
      <point x="787" y="559" type="curve" smooth="yes"/>
      <point x="848" y="559"/>
      <point x="897" y="538"/>
      <point x="897" y="466" type="curve" smooth="yes"/>
      <point x="897" y="357"/>
      <point x="806" y="289"/>
      <point x="621" y="287" type="curve" smooth="yes"/>
      <point x="376" y="284"/>
      <point x="289" y="365"/>
      <point x="289" y="570" type="curve" smooth="yes"/>
      <point x="289" y="837"/>
      <point x="485" y="852"/>
      <point x="620" y="852" type="curve" smooth="yes"/>
      <point x="681" y="852"/>
      <point x="789" y="848"/>
      <point x="851" y="844" type="curve"/>
      <point x="851" y="1206" type="line"/>
    </contour>
    <contour>
      <point x="271" y="257"/>
      <point x="141" y="122"/>
      <point x="141" y="-118" type="curve" smooth="yes"/>
      <point x="141" y="-394"/>
      <point x="326" y="-527"/>
      <point x="598" y="-527" type="curve" smooth="yes"/>
      <point x="797" y="-527"/>
      <point x="1022" y="-453"/>
      <point x="1022" y="-233" type="curve" smooth="yes"/>
      <point x="1022" y="-91"/>
      <point x="922" y="-19"/>
      <point x="782" y="-19" type="curve" smooth="yes"/>
      <point x="622" y="-19"/>
      <point x="558" y="-115"/>
      <point x="558" y="-206" type="curve" smooth="yes"/>
      <point x="558" y="-302"/>
      <point x="608" y="-367"/>
      <point x="691" y="-429" type="curve"/>
      <point x="795" y="-404" type="line"/>
      <point x="714" y="-343"/>
      <point x="688" y="-285"/>
      <point x="688" y="-229" type="curve" smooth="yes"/>
      <point x="688" y="-175"/>
      <point x="720" y="-133"/>
      <point x="787" y="-133" type="curve" smooth="yes"/>
      <point x="848" y="-133"/>
      <point x="897" y="-154"/>
      <point x="897" y="-226" type="curve" smooth="yes"/>
      <point x="897" y="-335"/>
      <point x="807" y="-401"/>
      <point x="621" y="-403" type="curve" smooth="yes"/>
      <point x="388" y="-406"/>
      <point x="292" y="-324"/>
      <point x="292" y="-122" type="curve" smooth="yes"/>
      <point x="292" y="61"/>
      <point x="386" y="162"/>
      <point x="635" y="167" type="curve"/>
      <point x="610" y="257" type="line"/>
    </contour>
    <contour>
      <point x="-15" y="1262" type="line"/>
      <point x="-15" y="1129" type="line"/>
      <point x="1129" y="1129" type="line"/>
      <point x="1129" y="1262" type="line"/>
    </contour>
    <contour>
      <point x="775" y="1168" type="move" name="top"/>
    </contour>
    <contour>
      <point x="649" y="-484" type="move" name="bottom"/>
    </contour>
    <contour>
      <point x="549" y="1168" type="move" name="topcandrabindu"/>
    </contour>
  </outline>
</glyph>
<glyph name="ka_ra-deva" format="1">
  <advance width="1505"/>
  <outline>
    <contour>
      <point x="770" y="368" type="line"/>
      <point x="718" y="443" type="line"/>
      <point x="167" y="64" type="line"/>
      <point x="257" y="-50" type="line"/>
    </contour>
    <component base="ka-deva"/>
    <contour>
      <point x="790" y="1168" type="move" name="top"/>
    </contour>
    <contour>
      <point x="791" y="28" type="move" name="bottom"/>
    </contour>
  </outline>
</glyph>
<glyph name="la_ra-deva" format="1">
  <advance width="1408"/>
  <outline>
    <contour>
      <point x="1196" y="444" type="line"/>
      <point x="1154" y="571" type="line"/>
      <point x="623" y="187" type="line"/>
      <point x="718" y="73" type="line"/>
    </contour>
    <component base="la-deva"/>
    <contour>
      <point x="1132" y="1168" type="move" name="top"/>
    </contour>
    <contour>
      <point x="1134" y="28" type="move" name="bottom"/>
    </contour>
  </outline>
</glyph>
<glyph name="ng-deva" format="1">
  <advance width="1119"/>
  <outline>
    <contour>
      <point x="847" y="1261" type="line"/>
      <point x="847" y="1129" type="line"/>
      <point x="1134" y="1129" type="line"/>
      <point x="1134" y="1261" type="line"/>
    </contour>
    <component base="dda-deva"/>
    <component base="halant-deva" xOffset="418" yOffset="-64"/>
    <component base="nukta-deva" xOffset="772" yOffset="616"/>
    <contour>
      <point x="271" y="584" type="move" name="top"/>
    </contour>
    <contour>
      <point x="271" y="14" type="move" name="bottom"/>
    </contour>
  </outline>
</glyph>
<glyph name="ng_k_ssa-deva" format="1">
  <advance width="1207"/>
  <outline>
    <contour>
      <point x="429" y="981" type="line" smooth="yes"/>
      <point x="255" y="981"/>
      <point x="178" y="926"/>
      <point x="178" y="805" type="curve" smooth="yes"/>
      <point x="178" y="701"/>
      <point x="236" y="583"/>
      <point x="301" y="530" type="curve"/>
      <point x="329" y="509"/>
      <point x="347" y="508"/>
      <point x="364" y="510" type="curve" smooth="yes"/>
      <point x="413" y="515"/>
      <point x="567" y="538"/>
      <point x="681" y="538" type="curve" smooth="yes"/>
      <point x="804" y="538"/>
      <point x="841" y="506"/>
      <point x="841" y="433" type="curve" smooth="yes"/>
      <point x="841" y="335"/>
      <point x="758" y="293"/>
      <point x="595" y="293" type="curve" smooth="yes"/>
      <point x="390" y="293"/>
      <point x="286" y="358"/>
      <point x="177" y="469" type="curve"/>
      <point x="98" y="393" type="line"/>
      <point x="233" y="232"/>
      <point x="405" y="170"/>
      <point x="586" y="165" type="curve" smooth="yes"/>
      <point x="800" y="165"/>
      <point x="984" y="233"/>
      <point x="984" y="449" type="curve" smooth="yes"/>
      <point x="984" y="646"/>
      <point x="829" y="672"/>
      <point x="669" y="671" type="curve" smooth="yes"/>
      <point x="556" y="671"/>
      <point x="414" y="653"/>
      <point x="340" y="638" type="curve"/>
      <point x="362" y="626" type="line"/>
      <point x="345" y="640"/>
      <point x="314" y="700"/>
      <point x="314" y="762" type="curve" smooth="yes"/>
      <point x="314" y="828"/>
      <point x="345" y="850"/>
      <point x="465" y="850" type="curve" smooth="yes"/>
      <point x="811" y="850" type="line"/>
      <point x="794" y="981" type="line"/>
    </contour>
    <contour>
      <point x="433" y="-548" type="line"/>
      <point x="572" y="-767" type="line"/>
      <point x="664" y="-706" type="line"/>
      <point x="523" y="-525" type="line"/>
    </contour>
    <contour>
      <point x="338" y="-401" type="line"/>
      <point x="430" y="-542" type="line"/>
      <point x="488" y="-599" type="line"/>
      <point x="543" y="-565"/>
      <point x="586" y="-535"/>
      <point x="587" y="-492" type="curve" smooth="yes"/>
      <point x="586" y="-449"/>
      <point x="520" y="-371"/>
      <point x="422" y="-345" type="curve"/>
    </contour>
    <contour>
      <point x="213" y="293"/>
      <point x="117" y="226"/>
      <point x="117" y="95" type="curve" smooth="yes"/>
      <point x="117" y="16"/>
      <point x="159" y="-62"/>
      <point x="281" y="-147" type="curve"/>
      <point x="381" y="-81" type="line"/>
      <point x="276" y="-14"/>
      <point x="246" y="40"/>
      <point x="246" y="88" type="curve" smooth="yes"/>
      <point x="246" y="158"/>
      <point x="293" y="193"/>
      <point x="363" y="193" type="curve" smooth="yes"/>
      <point x="429" y="193"/>
      <point x="468" y="161"/>
      <point x="468" y="87" type="curve" smooth="yes"/>
      <point x="468" y="8"/>
      <point x="419" y="-26"/>
      <point x="314" y="-83" type="curve" smooth="yes"/>
      <point x="140" y="-180"/>
      <point x="57" y="-233"/>
      <point x="57" y="-379" type="curve" smooth="yes"/>
      <point x="57" y="-560"/>
      <point x="216" y="-629"/>
      <point x="350" y="-629" type="curve" smooth="yes"/>
      <point x="416" y="-629"/>
      <point x="494" y="-611"/>
      <point x="536" y="-571" type="curve"/>
      <point x="502" y="-460" type="line"/>
      <point x="466" y="-498"/>
      <point x="399" y="-517"/>
      <point x="348" y="-517" type="curve" smooth="yes"/>
      <point x="278" y="-517"/>
      <point x="184" y="-483"/>
      <point x="184" y="-386" type="curve" smooth="yes"/>
      <point x="184" y="-286"/>
      <point x="242" y="-260"/>
      <point x="409" y="-162" type="curve" smooth="yes"/>
      <point x="537" y="-88"/>
      <point x="605" y="-13"/>
      <point x="605" y="98" type="curve" smooth="yes"/>
      <point x="605" y="226"/>
      <point x="516" y="293"/>
      <point x="366" y="293" type="curve" smooth="yes"/>
    </contour>
    <contour>
      <point x="314" y="-170" type="line"/>
      <point x="462" y="-260"/>
      <point x="593" y="-286"/>
      <point x="702" y="-286" type="curve" smooth="yes"/>
      <point x="760" y="-286"/>
      <point x="821" y="-277"/>
      <point x="887" y="-265" type="curve"/>
      <point x="881" y="-152" type="line"/>
      <point x="816" y="-165"/>
      <point x="760" y="-173"/>
      <point x="705" y="-173" type="curve" smooth="yes"/>
      <point x="624" y="-173"/>
      <point x="520" y="-153"/>
      <point x="411" y="-95" type="curve"/>
    </contour>
    <contour>
      <point x="800" y="316" type="line"/>
      <point x="800" y="-662" type="line"/>
      <point x="936" y="-662" type="line"/>
      <point x="936" y="316" type="line"/>
    </contour>
    <contour>
      <point x="-15" y="1261" type="line"/>
      <point x="-15" y="1129" type="line"/>
      <point x="1222" y="1129" type="line"/>
      <point x="1222" y="1261" type="line"/>
    </contour>
    <contour>
      <point x="717" y="1216" type="line"/>
      <point x="717" y="850" type="line"/>
      <point x="872" y="850" type="line"/>
      <point x="872" y="1216" type="line"/>
    </contour>
    <contour>
      <point x="943" y="834"/>
      <point x="916" y="808"/>
      <point x="916" y="747" type="curve" smooth="yes"/>
      <point x="916" y="686"/>
      <point x="943" y="660"/>
      <point x="1005" y="660" type="curve" smooth="yes"/>
      <point x="1066" y="660"/>
      <point x="1093" y="686"/>
      <point x="1093" y="747" type="curve" smooth="yes"/>
      <point x="1093" y="808"/>
      <point x="1066" y="834"/>
      <point x="1005" y="834" type="curve" smooth="yes"/>
    </contour>
    <contour>
      <point x="795" y="1168" type="move" name="top"/>
    </contour>
    <contour>
      <point x="872" y="-617" type="move" name="bottom"/>
    </contour>
    <contour>
      <point x="606" y="1168" type="move" name="topcandrabindu"/>
    </contour>
  </outline>
</glyph>
<glyph name="ng_kha-deva" format="1">
  <advance width="1261"/>
  <outline>
    <contour>
      <point x="-15" y="1261" type="line"/>
      <point x="-15" y="1129" type="line"/>
      <point x="1276" y="1129" type="line"/>
      <point x="1276" y="1261" type="line"/>
    </contour>
    <contour>
      <point x="770" y="1216" type="line"/>
      <point x="770" y="850" type="line"/>
      <point x="925" y="850" type="line"/>
      <point x="925" y="1216" type="line"/>
    </contour>
    <contour>
      <point x="482" y="981" type="line" smooth="yes"/>
      <point x="308" y="981"/>
      <point x="231" y="926"/>
      <point x="231" y="805" type="curve" smooth="yes"/>
      <point x="231" y="701"/>
      <point x="289" y="583"/>
      <point x="354" y="530" type="curve"/>
      <point x="382" y="509"/>
      <point x="400" y="508"/>
      <point x="417" y="510" type="curve" smooth="yes"/>
      <point x="466" y="515"/>
      <point x="620" y="538"/>
      <point x="734" y="538" type="curve" smooth="yes"/>
      <point x="857" y="538"/>
      <point x="894" y="506"/>
      <point x="894" y="433" type="curve" smooth="yes"/>
      <point x="894" y="335"/>
      <point x="811" y="293"/>
      <point x="648" y="293" type="curve" smooth="yes"/>
      <point x="443" y="293"/>
      <point x="339" y="358"/>
      <point x="230" y="469" type="curve"/>
      <point x="151" y="393" type="line"/>
      <point x="286" y="232"/>
      <point x="458" y="170"/>
      <point x="639" y="165" type="curve" smooth="yes"/>
      <point x="853" y="165"/>
      <point x="1037" y="233"/>
      <point x="1037" y="449" type="curve" smooth="yes"/>
      <point x="1037" y="646"/>
      <point x="882" y="672"/>
      <point x="722" y="671" type="curve" smooth="yes"/>
      <point x="609" y="671"/>
      <point x="467" y="653"/>
      <point x="393" y="638" type="curve"/>
      <point x="415" y="626" type="line"/>
      <point x="398" y="640"/>
      <point x="367" y="700"/>
      <point x="367" y="762" type="curve" smooth="yes"/>
      <point x="367" y="828"/>
      <point x="398" y="850"/>
      <point x="518" y="850" type="curve" smooth="yes"/>
      <point x="864" y="850" type="line"/>
      <point x="847" y="981" type="line"/>
    </contour>
    <contour>
      <point x="865" y="325" type="line"/>
      <point x="865" y="-593" type="line"/>
      <point x="1001" y="-593" type="line"/>
      <point x="1001" y="325" type="line"/>
    </contour>
    <contour>
      <point x="531" y="69"/>
      <point x="430" y="-5"/>
      <point x="430" y="-174" type="curve" smooth="yes"/>
      <point x="430" y="-297"/>
      <point x="494" y="-411"/>
      <point x="660" y="-411" type="curve" smooth="yes"/>
      <point x="773" y="-411"/>
      <point x="864" y="-365"/>
      <point x="919" y="-291" type="curve"/>
      <point x="906" y="-173" type="line"/>
      <point x="851" y="-251"/>
      <point x="774" y="-300"/>
      <point x="677" y="-300" type="curve" smooth="yes"/>
      <point x="601" y="-300"/>
      <point x="559" y="-262"/>
      <point x="559" y="-177" type="curve" smooth="yes"/>
      <point x="559" y="-97"/>
      <point x="596" y="-44"/>
      <point x="705" y="-43" type="curve" smooth="yes"/>
      <point x="766" y="-42"/>
      <point x="841" y="-54"/>
      <point x="920" y="-76" type="curve"/>
      <point x="917" y="11" type="line"/>
      <point x="873" y="41"/>
      <point x="788" y="69"/>
      <point x="688" y="69" type="curve" smooth="yes"/>
    </contour>
    <contour>
      <point x="266" y="308" type="line"/>
      <point x="266" y="34" type="line" smooth="yes"/>
      <point x="266" y="-33"/>
      <point x="243" y="-73"/>
      <point x="184" y="-74" type="curve" smooth="yes"/>
      <point x="157" y="-74"/>
      <point x="129" y="-67"/>
      <point x="95" y="-38" type="curve"/>
      <point x="11" y="-96" type="line"/>
      <point x="151" y="-494"/>
      <point x="380" y="-639"/>
      <point x="639" y="-639" type="curve" smooth="yes"/>
      <point x="692" y="-639"/>
      <point x="750" y="-636"/>
      <point x="816" y="-606" type="curve"/>
      <point x="790" y="-498" type="line"/>
      <point x="742" y="-515"/>
      <point x="700" y="-525"/>
      <point x="634" y="-525" type="curve" smooth="yes"/>
      <point x="438" y="-525"/>
      <point x="245" y="-394"/>
      <point x="156" y="-132" type="curve"/>
      <point x="136" y="-163" type="line"/>
      <point x="162" y="-173"/>
      <point x="191" y="-182"/>
      <point x="226" y="-182" type="curve" smooth="yes"/>
      <point x="312" y="-182"/>
      <point x="398" y="-133"/>
      <point x="398" y="33" type="curve" smooth="yes"/>
      <point x="398" y="309" type="line"/>
    </contour>
    <contour>
      <point x="998" y="832"/>
      <point x="971" y="806"/>
      <point x="971" y="745" type="curve" smooth="yes"/>
      <point x="971" y="684"/>
      <point x="998" y="658"/>
      <point x="1060" y="658" type="curve" smooth="yes"/>
      <point x="1121" y="658"/>
      <point x="1148" y="684"/>
      <point x="1148" y="745" type="curve" smooth="yes"/>
      <point x="1148" y="806"/>
      <point x="1121" y="832"/>
      <point x="1060" y="832" type="curve" smooth="yes"/>
    </contour>
    <contour>
      <point x="849" y="1168" type="move" name="top"/>
    </contour>
    <contour>
      <point x="941" y="-549" type="move" name="bottom"/>
    </contour>
    <contour>
      <point x="631" y="1168" type="move" name="topcandrabindu"/>
    </contour>
  </outline>
</glyph>
<glyph name="ng_ma-deva" format="1">
  <advance width="1226"/>
  <outline>
    <contour>
      <point x="442" y="981" type="line" smooth="yes"/>
      <point x="268" y="981"/>
      <point x="191" y="926"/>
      <point x="191" y="805" type="curve" smooth="yes"/>
      <point x="191" y="701"/>
      <point x="249" y="583"/>
      <point x="314" y="530" type="curve"/>
      <point x="342" y="509"/>
      <point x="360" y="508"/>
      <point x="377" y="510" type="curve" smooth="yes"/>
      <point x="426" y="515"/>
      <point x="580" y="538"/>
      <point x="694" y="538" type="curve" smooth="yes"/>
      <point x="817" y="538"/>
      <point x="854" y="506"/>
      <point x="854" y="433" type="curve" smooth="yes"/>
      <point x="854" y="335"/>
      <point x="771" y="293"/>
      <point x="608" y="293" type="curve" smooth="yes"/>
      <point x="403" y="293"/>
      <point x="299" y="358"/>
      <point x="190" y="469" type="curve"/>
      <point x="111" y="393" type="line"/>
      <point x="238" y="236"/>
      <point x="410" y="170"/>
      <point x="599" y="165" type="curve" smooth="yes"/>
      <point x="813" y="165"/>
      <point x="997" y="233"/>
      <point x="997" y="449" type="curve" smooth="yes"/>
      <point x="997" y="646"/>
      <point x="842" y="672"/>
      <point x="682" y="671" type="curve" smooth="yes"/>
      <point x="569" y="671"/>
      <point x="427" y="653"/>
      <point x="353" y="638" type="curve"/>
      <point x="375" y="626" type="line"/>
      <point x="358" y="640"/>
      <point x="327" y="700"/>
      <point x="327" y="762" type="curve" smooth="yes"/>
      <point x="327" y="828"/>
      <point x="358" y="850"/>
      <point x="478" y="850" type="curve" smooth="yes"/>
      <point x="824" y="850" type="line"/>
      <point x="807" y="981" type="line"/>
    </contour>
    <contour>
      <point x="-15" y="1261" type="line"/>
      <point x="-15" y="1129" type="line"/>
      <point x="1241" y="1129" type="line"/>
      <point x="1241" y="1261" type="line"/>
    </contour>
    <contour>
      <point x="731" y="1216" type="line"/>
      <point x="731" y="850" type="line"/>
      <point x="886" y="850" type="line"/>
      <point x="886" y="1216" type="line"/>
    </contour>
    <contour>
      <point x="772" y="286" type="line"/>
      <point x="772" y="-569" type="line"/>
      <point x="921" y="-569" type="line"/>
      <point x="921" y="286" type="line"/>
    </contour>
    <contour>
      <point x="307" y="-110" type="line"/>
      <point x="150" y="-128" type="line"/>
      <point x="150" y="-232" type="line"/>
      <point x="310" y="-409" type="line"/>
      <point x="418" y="-407"/>
      <point x="433" y="-351"/>
      <point x="433" y="-285" type="curve" smooth="yes"/>
      <point x="433" y="-110" type="line"/>
    </contour>
    <contour>
      <point x="286" y="277" type="line"/>
      <point x="286" y="-293" type="line"/>
      <point x="433" y="-168" type="line"/>
      <point x="433" y="277" type="line"/>
    </contour>
    <contour>
      <point x="287" y="-111" type="line"/>
      <point x="287" y="-245" type="line"/>
      <point x="860" y="-245" type="line"/>
      <point x="860" y="-111" type="line"/>
    </contour>
    <contour>
      <point x="961" y="828"/>
      <point x="934" y="802"/>
      <point x="934" y="740" type="curve" smooth="yes"/>
      <point x="934" y="680"/>
      <point x="961" y="654"/>
      <point x="1023" y="654" type="curve" smooth="yes"/>
      <point x="1084" y="654"/>
      <point x="1111" y="680"/>
      <point x="1111" y="740" type="curve" smooth="yes"/>
      <point x="1111" y="802"/>
      <point x="1084" y="828"/>
      <point x="1023" y="828" type="curve" smooth="yes"/>
    </contour>
    <contour>
      <point x="809" y="1168" type="move" name="top"/>
    </contour>
    <contour>
      <point x="854" y="-552" type="move" name="bottom"/>
    </contour>
    <contour>
      <point x="605" y="1168" type="move" name="topcandrabindu"/>
    </contour>
  </outline>
</glyph>
<glyph name="r-deva" format="1">
  <advance width="686"/>
  <outline>
    <component base="ra-deva"/>
    <component base="halant-deva" xOffset="374" yOffset="2"/>
    <contour>
      <point x="152" y="584" type="move" name="top"/>
    </contour>
    <contour>
      <point x="152" y="14" type="move" name="bottom"/>
    </contour>
  </outline>
</glyph>
<glyph name="r_ra-deva" format="1">
  <advance width="600"/>
  <outline>
    <contour>
      <point x="-15" y="1262" type="line"/>
      <point x="-15" y="1129" type="line"/>
      <point x="612" y="1129" type="line"/>
      <point x="612" y="1262" type="line"/>
    </contour>
    <contour>
      <point x="768" y="626" type="line"/>
      <point x="691" y="549"/>
      <point x="616" y="493"/>
      <point x="480" y="493" type="curve" smooth="yes"/>
      <point x="340" y="493"/>
      <point x="239" y="564"/>
      <point x="179" y="616" type="curve"/>
      <point x="108" y="533" type="line"/>
      <point x="186" y="438"/>
      <point x="328" y="357"/>
      <point x="488" y="357" type="curve" smooth="yes"/>
      <point x="625" y="357"/>
      <point x="746" y="413"/>
      <point x="820" y="489" type="curve"/>
    </contour>
    <contour>
      <point x="150" y="584" type="move" name="top"/>
    </contour>
    <contour>
      <point x="150" y="14" type="move" name="bottom"/>
    </contour>
  </outline>
</glyph>
<glyph name="sh_ca-deva" format="1">
  <advance width="1325"/>
  <outline>
    <contour>
      <point x="262" y="1296"/>
      <point x="140" y="1196"/>
      <point x="140" y="1032" type="curve" smooth="yes"/>
      <point x="140" y="928"/>
      <point x="186" y="824"/>
      <point x="349" y="723" type="curve"/>
      <point x="483" y="786" type="line"/>
      <point x="324" y="871"/>
      <point x="289" y="955"/>
      <point x="289" y="1020" type="curve" smooth="yes"/>
      <point x="289" y="1112"/>
      <point x="346" y="1168"/>
      <point x="460" y="1168" type="curve" smooth="yes"/>
      <point x="560" y="1168"/>
      <point x="625" y="1119"/>
      <point x="625" y="1026" type="curve" smooth="yes"/>
      <point x="625" y="927"/>
      <point x="551" y="858"/>
      <point x="415" y="778" type="curve"/>
      <point x="43" y="570" type="line"/>
      <point x="114" y="453" type="line"/>
      <point x="531" y="695" type="line"/>
      <point x="690" y="788"/>
      <point x="779" y="894"/>
      <point x="779" y="1032" type="curve" smooth="yes"/>
      <point x="779" y="1206"/>
      <point x="652" y="1296"/>
      <point x="460" y="1296" type="curve" smooth="yes"/>
    </contour>
    <contour>
      <point x="144" y="269" type="line"/>
      <point x="209" y="153" type="line"/>
      <point x="637" y="404" type="line"/>
      <point x="574" y="516" type="line"/>
    </contour>
    <contour>
      <point x="459" y="343" type="line"/>
      <point x="384" y="281"/>
      <point x="345" y="227"/>
      <point x="345" y="149" type="curve" smooth="yes"/>
      <point x="345" y="14"/>
      <point x="448" y="-89"/>
      <point x="613" y="-89" type="curve" smooth="yes"/>
      <point x="826" y="-89"/>
      <point x="996" y="71"/>
      <point x="1050" y="324" type="curve"/>
      <point x="972" y="441" type="line"/>
      <point x="961" y="242"/>
      <point x="804" y="56"/>
      <point x="635" y="53" type="curve" smooth="yes"/>
      <point x="539" y="52"/>
      <point x="483" y="101"/>
      <point x="483" y="188" type="curve" smooth="yes"/>
      <point x="483" y="269"/>
      <point x="538" y="343"/>
      <point x="637" y="404" type="curve"/>
      <point x="586" y="445" type="line"/>
    </contour>
    <contour>
      <point x="406" y="684" type="line"/>
      <point x="543" y="602"/>
      <point x="675" y="560"/>
      <point x="811" y="548" type="curve" smooth="yes"/>
      <point x="894" y="538"/>
      <point x="975" y="537"/>
      <point x="1078" y="546" type="curve"/>
      <point x="1076" y="678" type="line"/>
      <point x="995" y="669"/>
      <point x="911" y="667"/>
      <point x="826" y="676" type="curve" smooth="yes"/>
      <point x="721" y="686"/>
      <point x="615" y="712"/>
      <point x="519" y="762" type="curve"/>
    </contour>
    <contour>
      <point x="969" y="1199" type="line"/>
      <point x="969" y="-41" type="line"/>
      <point x="1125" y="-41" type="line"/>
      <point x="1125" y="1199" type="line"/>
    </contour>
    <contour>
      <point x="847" y="1262" type="line"/>
      <point x="847" y="1129" type="line"/>
      <point x="1340" y="1129" type="line"/>
      <point x="1340" y="1262" type="line"/>
    </contour>
    <contour>
      <point x="1047" y="1168" type="move" name="top"/>
    </contour>
    <contour>
      <point x="1046" y="-16" type="move" name="bottom"/>
    </contour>
    <contour>
      <point x="797" y="1168" type="move" name="topcandrabindu"/>
    </contour>
  </outline>
</glyph>
<glyph name="sh_la-deva" format="1">
  <advance width="1953"/>
  <outline>
    <contour>
      <point x="262" y="1296"/>
      <point x="140" y="1196"/>
      <point x="140" y="1032" type="curve" smooth="yes"/>
      <point x="140" y="928"/>
      <point x="186" y="824"/>
      <point x="349" y="723" type="curve"/>
      <point x="483" y="786" type="line"/>
      <point x="324" y="871"/>
      <point x="289" y="955"/>
      <point x="289" y="1020" type="curve" smooth="yes"/>
      <point x="289" y="1112"/>
      <point x="346" y="1168"/>
      <point x="460" y="1168" type="curve" smooth="yes"/>
      <point x="560" y="1168"/>
      <point x="625" y="1119"/>
      <point x="625" y="1026" type="curve" smooth="yes"/>
      <point x="625" y="927"/>
      <point x="551" y="858"/>
      <point x="415" y="778" type="curve"/>
      <point x="43" y="570" type="line"/>
      <point x="114" y="453" type="line" smooth="yes"/>
      <point x="531" y="695" type="line"/>
      <point x="690" y="788"/>
      <point x="779" y="894"/>
      <point x="779" y="1032" type="curve" smooth="yes"/>
      <point x="779" y="1206"/>
      <point x="652" y="1296"/>
      <point x="460" y="1296" type="curve" smooth="yes"/>
    </contour>
    <contour>
      <point x="727" y="687"/>
      <point x="616" y="571"/>
      <point x="616" y="364" type="curve" smooth="yes"/>
      <point x="616" y="105"/>
      <point x="774" y="-65"/>
      <point x="891" y="-194" type="curve"/>
      <point x="1003" y="-98" type="line"/>
      <point x="880" y="47"/>
      <point x="771" y="163"/>
      <point x="771" y="339" type="curve" smooth="yes"/>
      <point x="771" y="490"/>
      <point x="851" y="540"/>
      <point x="946" y="540" type="curve" smooth="yes"/>
      <point x="1061" y="540"/>
      <point x="1133" y="457"/>
      <point x="1197" y="335" type="curve"/>
      <point x="1229" y="441" type="line"/>
      <point x="1155" y="618"/>
      <point x="1053" y="687"/>
      <point x="913" y="687" type="curve" smooth="yes"/>
    </contour>
    <contour>
      <point x="387" y="697" type="line"/>
      <point x="522" y="608"/>
      <point x="652" y="593"/>
      <point x="743" y="583" type="curve" smooth="yes"/>
      <point x="798" y="568"/>
      <point x="856" y="559"/>
      <point x="917" y="557" type="curve"/>
      <point x="936" y="684" type="line"/>
      <point x="882" y="684"/>
      <point x="829" y="688"/>
      <point x="774" y="698" type="curve" smooth="yes"/>
      <point x="713" y="707"/>
      <point x="595" y="721"/>
      <point x="502" y="773" type="curve"/>
    </contour>
    <contour>
      <point x="1253" y="681"/>
      <point x="1116" y="547"/>
      <point x="1116" y="334" type="curve" smooth="yes"/>
      <point x="1116" y="298"/>
      <point x="1120" y="261"/>
      <point x="1131" y="224" type="curve"/>
      <point x="1271" y="241" type="line"/>
      <point x="1267" y="267"/>
      <point x="1265" y="292"/>
      <point x="1265" y="316" type="curve" smooth="yes"/>
      <point x="1265" y="453"/>
      <point x="1335" y="538"/>
      <point x="1448" y="538" type="curve" smooth="yes"/>
      <point x="1540" y="538"/>
      <point x="1598" y="492"/>
      <point x="1629" y="419" type="curve"/>
      <point x="1645" y="520" type="line"/>
      <point x="1615" y="626"/>
      <point x="1517" y="681"/>
      <point x="1421" y="681" type="curve" smooth="yes"/>
    </contour>
    <contour>
      <point x="1597" y="1187" type="line"/>
      <point x="1596" y="-168" type="line"/>
      <point x="1752" y="-168" type="line"/>
      <point x="1753" y="1187" type="line"/>
    </contour>
    <contour>
      <point x="847" y="1262" type="line"/>
      <point x="847" y="1129" type="line"/>
      <point x="1996" y="1129" type="line"/>
      <point x="1996" y="1262" type="line"/>
    </contour>
    <contour>
      <point x="1675" y="1168" type="move" name="top"/>
    </contour>
    <contour>
      <point x="1674" y="-141" type="move" name="bottom"/>
    </contour>
    <contour>
      <point x="1222" y="1168" type="move" name="topcandrabindu"/>
    </contour>
  </outline>
</glyph>
<glyph name="sh_va-deva" format="1">
  <advance width="1324"/>
  <outline>
    <contour>
      <point x="397" y="691" type="line"/>
      <point x="495" y="630"/>
      <point x="585" y="571"/>
      <point x="795" y="533" type="curve"/>
      <point x="799" y="584" type="line"/>
      <point x="654" y="568"/>
      <point x="593" y="551"/>
      <point x="541" y="529" type="curve" smooth="yes"/>
      <point x="400" y="470"/>
      <point x="302" y="374"/>
      <point x="302" y="218" type="curve" smooth="yes"/>
      <point x="302" y="53"/>
      <point x="404" y="-82"/>
      <point x="609" y="-82" type="curve" smooth="yes"/>
      <point x="804" y="-82"/>
      <point x="988" y="61"/>
      <point x="1047" y="288" type="curve"/>
      <point x="982" y="370" type="line"/>
      <point x="914" y="160"/>
      <point x="763" y="58"/>
      <point x="632" y="58" type="curve" smooth="yes"/>
      <point x="525" y="58"/>
      <point x="462" y="114"/>
      <point x="462" y="216" type="curve" smooth="yes"/>
      <point x="462" y="313"/>
      <point x="516" y="379"/>
      <point x="607" y="421" type="curve" smooth="yes"/>
      <point x="694" y="462"/>
      <point x="828" y="484"/>
      <point x="928" y="484" type="curve" smooth="yes"/>
      <point x="952" y="484"/>
      <point x="977" y="483"/>
      <point x="1004" y="479" type="curve"/>
      <point x="1024" y="616" type="line"/>
      <point x="849" y="622"/>
      <point x="689" y="662"/>
      <point x="517" y="758" type="curve"/>
    </contour>
    <contour>
      <point x="968" y="1199" type="line"/>
      <point x="968" y="-41" type="line"/>
      <point x="1124" y="-41" type="line"/>
      <point x="1124" y="1199" type="line"/>
    </contour>
    <contour>
      <point x="846" y="1262" type="line"/>
      <point x="846" y="1129" type="line"/>
      <point x="1339" y="1129" type="line"/>
      <point x="1339" y="1262" type="line"/>
    </contour>
    <contour>
      <point x="262" y="1296"/>
      <point x="140" y="1196"/>
      <point x="140" y="1032" type="curve" smooth="yes"/>
      <point x="140" y="928"/>
      <point x="186" y="824"/>
      <point x="349" y="723" type="curve"/>
      <point x="483" y="786" type="line"/>
      <point x="324" y="871"/>
      <point x="289" y="955"/>
      <point x="289" y="1020" type="curve" smooth="yes"/>
      <point x="289" y="1112"/>
      <point x="346" y="1168"/>
      <point x="460" y="1168" type="curve" smooth="yes"/>
      <point x="560" y="1168"/>
      <point x="625" y="1119"/>
      <point x="625" y="1026" type="curve" smooth="yes"/>
      <point x="625" y="927"/>
      <point x="551" y="858"/>
      <point x="415" y="778" type="curve"/>
      <point x="43" y="570" type="line"/>
      <point x="114" y="453" type="line"/>
      <point x="531" y="695" type="line"/>
      <point x="690" y="788"/>
      <point x="779" y="894"/>
      <point x="779" y="1036" type="curve" smooth="yes"/>
      <point x="779" y="1206"/>
      <point x="652" y="1296"/>
      <point x="460" y="1296" type="curve" smooth="yes"/>
    </contour>
    <contour>
      <point x="1047" y="1168" type="move" name="top"/>
    </contour>
    <contour>
      <point x="1048" y="-16" type="move" name="bottom"/>
    </contour>
    <contour>
      <point x="797" y="1168" type="move" name="topcandrabindu"/>
    </contour>
  </outline>
</glyph>
<glyph name="sha-deva.loclMAR" format="1">
  <advance width="1347"/>
  <outline>
    <contour>
      <point x="990" y="1199" type="line"/>
      <point x="990" y="0" type="line"/>
      <point x="1147" y="0" type="line"/>
      <point x="1147" y="1199" type="line"/>
    </contour>
    <contour>
      <point x="775" y="1262" type="line"/>
      <point x="775" y="1129" type="line"/>
      <point x="1362" y="1129" type="line"/>
      <point x="1362" y="1262" type="line"/>
    </contour>
    <component base="sh-deva.loclMAR"/>
    <contour>
      <point x="264" y="-285" type="move" name="nukta"/>
    </contour>
    <contour>
      <point x="1069" y="1168" type="move" name="top"/>
    </contour>
    <contour>
      <point x="721" y="1168" type="move" name="topcandrabindu"/>
    </contour>
    <contour>
      <point x="1069" y="28" type="move" name="bottom"/>
    </contour>
  </outline>
</glyph>
<glyph name="t_r-deva" format="1">
  <advance width="550"/>
  <outline>
    <contour>
      <point x="-15" y="1262" type="line"/>
      <point x="-15" y="1129" type="line"/>
      <point x="606" y="1129" type="line"/>
      <point x="606" y="1262" type="line"/>
    </contour>
    <contour>
      <point x="752" y="602" type="line"/>
      <point x="512" y="906"/>
      <point x="405" y="955"/>
      <point x="285" y="955" type="curve" smooth="yes"/>
      <point x="176" y="955"/>
      <point x="95" y="905"/>
      <point x="29" y="852" type="curve"/>
      <point x="108" y="726" type="line"/>
      <point x="179" y="777"/>
      <point x="243" y="811"/>
      <point x="299" y="811" type="curve" smooth="yes"/>
      <point x="407" y="810"/>
      <point x="492" y="727"/>
      <point x="664" y="540" type="curve"/>
      <point x="667" y="602" type="line"/>
      <point x="127" y="211" type="line"/>
      <point x="222" y="97" type="line"/>
      <point x="750" y="511" type="line"/>
    </contour>
    <contour>
      <point x="152" y="584" type="move" name="top"/>
    </contour>
    <contour>
      <point x="152" y="14" type="move" name="bottom"/>
    </contour>
  </outline>
</glyph>
<glyph name="ya-deva.post" format="1">
  <advance width="1166"/>
  <outline>
    <contour>
      <point x="23" y="940"/>
      <point x="-116" y="883"/>
      <point x="-276" y="801" type="curve"/>
      <point x="-228" y="670" type="line"/>
      <point x="-113" y="741"/>
      <point x="68" y="813"/>
      <point x="206" y="813" type="curve" smooth="yes"/>
      <point x="288" y="813"/>
      <point x="331" y="787"/>
      <point x="331" y="739" type="curve" smooth="yes"/>
      <point x="331" y="677"/>
      <point x="257" y="618"/>
      <point x="70" y="568" type="curve"/>
      <point x="126" y="296"/>
      <point x="283" y="148"/>
      <point x="513" y="148" type="curve" smooth="yes"/>
      <point x="641" y="148"/>
      <point x="746" y="194"/>
      <point x="833" y="285" type="curve"/>
      <point x="840" y="480" type="line"/>
      <point x="758" y="343"/>
      <point x="617" y="290"/>
      <point x="502" y="290" type="curve" smooth="yes"/>
      <point x="363" y="290"/>
      <point x="257" y="369"/>
      <point x="220" y="529" type="curve"/>
      <point x="201" y="470" type="line"/>
      <point x="295" y="499"/>
      <point x="475" y="571"/>
      <point x="475" y="750" type="curve" smooth="yes"/>
      <point x="475" y="888"/>
      <point x="371" y="940"/>
      <point x="200" y="940" type="curve" smooth="yes"/>
    </contour>
    <contour>
      <point x="810" y="1156" type="line"/>
      <point x="810" y="0" type="line"/>
      <point x="966" y="0" type="line"/>
      <point x="966" y="1156" type="line"/>
    </contour>
    <contour>
      <point x="-23" y="1262" type="line"/>
      <point x="-23" y="1129" type="line"/>
      <point x="1181" y="1129" type="line"/>
      <point x="1181" y="1262" type="line"/>
    </contour>
    <contour>
      <point x="888" y="1168" type="move" name="top"/>
    </contour>
    <contour>
      <point x="433" y="14" type="move" name="bottom"/>
    </contour>
  </outline>
</glyph>
<glyph name="z-deva" format="1">
  <advance width="934"/>
  <outline>
    <component base="j-deva"/>
    <component base="nukta-deva" xOffset="369" yOffset="17"/>
    <contour>
      <point x="236" y="584" type="move" name="top"/>
    </contour>
    <contour>
      <point x="236" y="14" type="move" name="bottom"/>
    </contour>
  </outline>
</glyph>
